<svg width="64" height="64" viewBox="0 0 64 64" fill="none" xmlns="http://www.w3.org/2000/svg">
<path d="M4 24.8372C4 17.5435 4 13.8966 5.41945 11.1108C6.66803 8.66034 8.66034 6.66803 11.1108 5.41945C13.8966 4 17.5435 4 24.8372 4H39.1628C46.4565 4 50.1034 4 52.8892 5.41945C55.3397 6.66803 57.332 8.66034 58.5805 11.1108C60 13.8966 60 17.5435 60 24.8372V39.1628C60 46.4565 60 50.1034 58.5805 52.8892C57.332 55.3397 55.3397 57.332 52.8892 58.5805C50.1034 60 46.4565 60 39.1628 60H24.8372C17.5435 60 13.8966 60 11.1108 58.5805C8.66034 57.332 6.66803 55.3397 5.41945 52.8892C4 50.1034 4 46.4565 4 39.1628V24.8372Z" fill="url(#paint0_linear_728_288)"/>
<g filter="url(#filter0_di_728_288)">
<circle cx="32" cy="32" r="24.093" fill="url(#paint1_linear_728_288)"/>
</g>
<circle cx="32" cy="32" r="21.4642" transform="rotate(4.84342 32 32)" stroke="white" stroke-width="1.95349" stroke-dasharray="0.65 3.26"/>
<circle cx="32" cy="32" r="20.4875" transform="rotate(-10.1566 32 32)" stroke="white" stroke-width="3.90698" stroke-dasharray="0.65 3.26"/>
<g filter="url(#filter1_d_728_288)">
<mask id="mask0_728_288" style="mask-type:alpha" maskUnits="userSpaceOnUse" x="29" y="17" width="19" height="18">
<path d="M29.3954 29.7209L47.9535 17.6744L33.3024 34.2791L29.3954 29.7209Z" fill="#C4C4C4"/>
</mask>
<g mask="url(#mask0_728_288)">
<path d="M29.3954 29.7209L47.9535 17.6744L33.3024 34.2791L29.3954 29.7209Z" fill="#D27067"/>
<path d="M30.3721 32.9768L47.9535 17.6744L33.3023 34.2791L30.3721 32.9768Z" fill="#B63027"/>
</g>
<mask id="mask1_728_288" style="mask-type:alpha" maskUnits="userSpaceOnUse" x="15" y="29" width="19" height="17">
<path d="M33.6279 33.9535L15.0698 46L29.721 29.3953L33.6279 33.9535Z" fill="#C4C4C4"/>
</mask>
<g mask="url(#mask1_728_288)">
<path d="M33.6279 33.9535L15.0698 46L29.721 29.3953L33.6279 33.9535Z" fill="#CEC4CC"/>
<path d="M32.6511 30.6977L15.0697 46L29.7209 29.3953L32.6511 30.6977Z" fill="#FCFFF6"/>
</g>
</g>
<defs>
<filter id="filter0_di_728_288" x="7.90698" y="7.90698" width="48.186" height="49.4884" filterUnits="userSpaceOnUse" color-interpolation-filters="sRGB">
<feFlood flood-opacity="0" result="BackgroundImageFix"/>
<feColorMatrix in="SourceAlpha" type="matrix" values="0 0 0 0 0 0 0 0 0 0 0 0 0 0 0 0 0 0 127 0" result="hardAlpha"/>
<feOffset dy="0.651163"/>
<feColorMatrix type="matrix" values="0 0 0 0 0.125 0 0 0 0 0.125 0 0 0 0 0.125 0 0 0 0.53 0"/>
<feBlend mode="normal" in2="BackgroundImageFix" result="effect1_dropShadow_728_288"/>
<feBlend mode="normal" in="SourceGraphic" in2="effect1_dropShadow_728_288" result="shape"/>
<feColorMatrix in="SourceAlpha" type="matrix" values="0 0 0 0 0 0 0 0 0 0 0 0 0 0 0 0 0 0 127 0" result="hardAlpha"/>
<feOffset dy="1.30233"/>
<feGaussianBlur stdDeviation="1.62791"/>
<feComposite in2="hardAlpha" operator="arithmetic" k2="-1" k3="1"/>
<feColorMatrix type="matrix" values="0 0 0 0 0 0 0 0 0 0 0 0 0 0 0 0 0 0 0.37 0"/>
<feBlend mode="normal" in2="shape" result="effect2_innerShadow_728_288"/>
</filter>
<filter id="filter1_d_728_288" x="12.4652" y="16.3721" width="38.093" height="33.5349" filterUnits="userSpaceOnUse" color-interpolation-filters="sRGB">
<feFlood flood-opacity="0" result="BackgroundImageFix"/>
<feColorMatrix in="SourceAlpha" type="matrix" values="0 0 0 0 0 0 0 0 0 0 0 0 0 0 0 0 0 0 127 0" result="hardAlpha"/>
<feOffset dy="1.30233"/>
<feGaussianBlur stdDeviation="1.30233"/>
<feColorMatrix type="matrix" values="0 0 0 0 0 0 0 0 0 0 0 0 0 0 0 0 0 0 0.74 0"/>
<feBlend mode="normal" in2="BackgroundImageFix" result="effect1_dropShadow_728_288"/>
<feBlend mode="normal" in="SourceGraphic" in2="effect1_dropShadow_728_288" result="shape"/>
</filter>
<linearGradient id="paint0_linear_728_288" x1="18.3256" y1="53.814" x2="43.0698" y2="1.06977" gradientUnits="userSpaceOnUse">
<stop stop-color="#2C2C2C"/>
<stop offset="1" stop-color="#4B4B4B"/>
</linearGradient>
<linearGradient id="paint1_linear_728_288" x1="41.5104" y1="12.6622" x2="32" y2="56.093" gradientUnits="userSpaceOnUse">
<stop stop-color="#25B5F8"/>
<stop offset="1" stop-color="#3570B6"/>
</linearGradient>
</defs>
</svg>
