<svg width="64" height="64" viewBox="0 0 64 64" fill="none" xmlns="http://www.w3.org/2000/svg">
<g filter="url(#filter0_ii_24_52)">
<circle cx="32" cy="32" r="23.625" fill="#737472"/>
</g>
<g filter="url(#filter1_ddii_24_52)">
<path d="M32.3506 18.3984C32.6698 18.4103 32.9856 18.4336 33.2979 18.4688L33.6826 16.79L33.7236 18.5225C34.0392 18.5671 34.3511 18.6225 34.6582 18.6885L35.2119 17.0518L35.0781 18.7881C35.386 18.8624 35.6888 18.9488 35.9863 19.0479L36.71 17.4648L36.3975 19.1885C36.6936 19.2951 36.9848 19.4127 37.2705 19.54L38.1553 18.0264L37.668 19.7227C37.9496 19.8589 38.2259 20.0046 38.4961 20.1592L39.5381 18.7305L38.873 20.3818C39.1379 20.5444 39.3965 20.716 39.6484 20.8965L40.8398 19.5693L40.0049 21.1602C40.2497 21.3476 40.4891 21.5433 40.7197 21.7471L42.0518 20.5361L41.0488 22.0537C41.2719 22.2638 41.4881 22.4806 41.6963 22.7051L43.1602 21.6289L42.002 23.042C42.2008 23.2725 42.3922 23.5091 42.5762 23.752L44.1523 22.8174L42.8447 24.123C43.0188 24.37 43.184 24.624 43.3418 24.8838L45.0176 24.1064L43.5732 25.2793C43.7201 25.5411 43.8588 25.8079 43.9883 26.0801L45.75 25.4707L44.1797 26.5029C44.2997 26.7761 44.4096 27.0544 44.5088 27.3369L46.3389 26.9053L44.6553 27.7812C44.7451 28.0639 44.826 28.3496 44.8965 28.6387L46.7812 28.3916L45.0059 29.0996C45.0644 29.3867 45.1146 29.6776 45.1553 29.9717L47.0703 29.915L45.2139 30.4443C45.2431 30.7313 45.2635 31.0239 45.2754 31.3213L47.2031 31.46L45.2871 31.7969V31.8477C45.2871 32.1235 45.2771 32.3978 45.2607 32.6699L47.1797 33.0059L45.2236 33.1543C45.1954 33.4443 45.1584 33.7315 45.1123 34.0156L46.999 34.5479L45.0254 34.4961C44.9688 34.7795 44.9035 35.0612 44.8291 35.3379L46.6631 36.0645L44.6904 35.8096C44.6063 36.084 44.5123 36.356 44.4111 36.623L46.1738 37.5332L44.2285 37.082C44.1164 37.3452 43.9971 37.6041 43.8701 37.8584L45.54 38.9492L43.6396 38.2988C43.5028 38.5485 43.3587 38.793 43.207 39.0322L44.7695 40.2969L42.9355 39.4531C42.7753 39.6867 42.6077 39.9155 42.4336 40.1387L43.8643 41.5566L42.1152 40.5234C41.9332 40.7396 41.7447 40.9496 41.5498 41.1533L42.834 42.7148L41.1963 41.5107C40.994 41.709 40.7865 41.8996 40.5732 42.082L41.6963 43.7695L40.1836 42.4023C39.9641 42.5771 39.7375 42.7446 39.5068 42.9053L40.4551 44.6992L39.0879 43.1865C38.8522 43.3381 38.6106 43.4824 38.3652 43.6191L39.126 45.5L37.9199 43.8564C37.6699 43.9836 37.4145 44.1043 37.1562 44.2158L37.7207 46.1621L36.6875 44.4062C36.4262 44.5073 36.1608 44.6008 35.8916 44.6865L36.2637 46.6787L35.4082 44.8301C35.1394 44.9049 34.8666 44.9713 34.5898 45.0293L34.7529 47.0459L34.0918 45.123C33.8155 45.1701 33.5361 45.209 33.2539 45.2393L33.2119 47.2578L32.7568 45.2822C32.4673 45.304 32.1753 45.3144 31.8809 45.3145L31.6309 47.3125L31.3779 45.3066C31.0932 45.2972 30.81 45.2792 30.5293 45.2529L30.083 47.2061L30.0361 45.1982C29.7525 45.1611 29.4716 45.1146 29.1934 45.0596L28.5527 46.9463L28.71 44.9541C28.4301 44.8886 28.1532 44.8138 27.8809 44.7305L27.0576 46.5332L27.4131 44.5791C27.1403 44.4844 26.8717 44.382 26.6074 44.2715L25.6123 45.9697L26.1602 44.0732C25.8975 43.9513 25.6378 43.8229 25.3848 43.6846L24.2305 45.2637L24.9629 43.4443C24.7125 43.2956 24.4671 43.1401 24.2275 42.9766L22.9287 44.4209L23.834 42.6973C23.5989 42.5243 23.3697 42.3436 23.1465 42.1553L21.7178 43.4521L22.7852 41.8408C22.5669 41.643 22.3548 41.4388 22.1504 41.2285L20.6113 42.3652L21.8262 40.8828C21.6277 40.6636 21.4365 40.4371 21.2529 40.2051L19.6211 41.1729L20.9678 39.834C20.7914 39.5945 20.6217 39.3491 20.4609 39.0977L18.7559 39.8867L20.2178 38.7012C20.065 38.4433 19.9206 38.1799 19.7852 37.9121L18.0254 38.5186L19.584 37.4961C19.458 37.2229 19.3411 36.9447 19.2324 36.6621L17.4375 37.084L19.0752 36.2324C18.977 35.9458 18.888 35.6549 18.8086 35.3604L16.9971 35.5967L18.6973 34.9209C18.6288 34.6249 18.5701 34.3249 18.5205 34.0215L16.71 34.0732L18.4561 33.5771C18.4174 33.2739 18.3889 32.9683 18.3711 32.6602L16.5781 32.5254L18.3506 32.2109C18.3461 32.092 18.3467 31.9722 18.3467 31.8525C18.3467 31.6622 18.3519 31.4723 18.3594 31.2842L16.6035 30.9746L18.3838 30.8457C18.4076 30.5333 18.4412 30.2244 18.4854 29.9189L16.7861 29.4375L18.5547 29.4863C18.6097 29.1771 18.6751 28.8712 18.751 28.5693L17.123 27.9229L18.8633 28.1455C18.9501 27.8426 19.0471 27.5435 19.1543 27.249L17.6123 26.4502L19.3096 26.8467C19.4277 26.5526 19.5554 26.2636 19.6924 25.9805L18.2529 25.0322L19.8896 25.5947C20.0374 25.3143 20.1947 25.0396 20.3613 24.7705L19.0225 23.6885L20.5898 24.4111C20.7659 24.1464 20.9501 23.888 21.1436 23.6367L19.9297 22.4307L21.4092 23.3037C21.6115 23.0579 21.8218 22.8193 22.041 22.5889L20.959 21.2695L22.3379 22.2861C22.5641 22.0615 22.7989 21.845 23.041 21.6367L22.1006 20.2236L23.3652 21.3701C23.6143 21.1693 23.8704 20.9779 24.1328 20.7959L23.3418 19.2969L24.4824 20.5615C24.7503 20.387 25.0244 20.2221 25.3047 20.0674L24.6719 18.4961L25.6758 19.8691C25.9581 19.7234 26.2482 19.5869 26.5459 19.4609L26.0752 17.8359L26.9365 19.3027C27.2339 19.1868 27.5359 19.0814 27.8428 18.9873L27.5381 17.3203L28.248 18.8701C28.5547 18.7838 28.8661 18.709 29.1816 18.6465L29.0469 16.9531L29.5977 18.5713C29.91 18.5193 30.2261 18.479 30.5459 18.4492L30.583 16.7422L30.9697 18.416C31.2502 18.3982 31.5322 18.3887 31.8164 18.3887H31.9229L32.1348 16.6875L32.3506 18.3984ZM31.8906 20.4873C25.5321 20.4873 20.3779 25.6415 20.3779 32C20.3779 38.3585 25.5321 43.5127 31.8906 43.5127C38.2492 43.5127 43.4033 38.3585 43.4033 32C43.4033 25.6415 38.2492 20.4873 31.8906 20.4873Z" fill="url(#paint0_linear_24_52)"/>
<path d="M32.3506 18.3984C32.6698 18.4103 32.9856 18.4336 33.2979 18.4688L33.6826 16.79L33.7236 18.5225C34.0392 18.5671 34.3511 18.6225 34.6582 18.6885L35.2119 17.0518L35.0781 18.7881C35.386 18.8624 35.6888 18.9488 35.9863 19.0479L36.71 17.4648L36.3975 19.1885C36.6936 19.2951 36.9848 19.4127 37.2705 19.54L38.1553 18.0264L37.668 19.7227C37.9496 19.8589 38.2259 20.0046 38.4961 20.1592L39.5381 18.7305L38.873 20.3818C39.1379 20.5444 39.3965 20.716 39.6484 20.8965L40.8398 19.5693L40.0049 21.1602C40.2497 21.3476 40.4891 21.5433 40.7197 21.7471L42.0518 20.5361L41.0488 22.0537C41.2719 22.2638 41.4881 22.4806 41.6963 22.7051L43.1602 21.6289L42.002 23.042C42.2008 23.2725 42.3922 23.5091 42.5762 23.752L44.1523 22.8174L42.8447 24.123C43.0188 24.37 43.184 24.624 43.3418 24.8838L45.0176 24.1064L43.5732 25.2793C43.7201 25.5411 43.8588 25.8079 43.9883 26.0801L45.75 25.4707L44.1797 26.5029C44.2997 26.7761 44.4096 27.0544 44.5088 27.3369L46.3389 26.9053L44.6553 27.7812C44.7451 28.0639 44.826 28.3496 44.8965 28.6387L46.7812 28.3916L45.0059 29.0996C45.0644 29.3867 45.1146 29.6776 45.1553 29.9717L47.0703 29.915L45.2139 30.4443C45.2431 30.7313 45.2635 31.0239 45.2754 31.3213L47.2031 31.46L45.2871 31.7969V31.8477C45.2871 32.1235 45.2771 32.3978 45.2607 32.6699L47.1797 33.0059L45.2236 33.1543C45.1954 33.4443 45.1584 33.7315 45.1123 34.0156L46.999 34.5479L45.0254 34.4961C44.9688 34.7795 44.9035 35.0612 44.8291 35.3379L46.6631 36.0645L44.6904 35.8096C44.6063 36.084 44.5123 36.356 44.4111 36.623L46.1738 37.5332L44.2285 37.082C44.1164 37.3452 43.9971 37.6041 43.8701 37.8584L45.54 38.9492L43.6396 38.2988C43.5028 38.5485 43.3587 38.793 43.207 39.0322L44.7695 40.2969L42.9355 39.4531C42.7753 39.6867 42.6077 39.9155 42.4336 40.1387L43.8643 41.5566L42.1152 40.5234C41.9332 40.7396 41.7447 40.9496 41.5498 41.1533L42.834 42.7148L41.1963 41.5107C40.994 41.709 40.7865 41.8996 40.5732 42.082L41.6963 43.7695L40.1836 42.4023C39.9641 42.5771 39.7375 42.7446 39.5068 42.9053L40.4551 44.6992L39.0879 43.1865C38.8522 43.3381 38.6106 43.4824 38.3652 43.6191L39.126 45.5L37.9199 43.8564C37.6699 43.9836 37.4145 44.1043 37.1562 44.2158L37.7207 46.1621L36.6875 44.4062C36.4262 44.5073 36.1608 44.6008 35.8916 44.6865L36.2637 46.6787L35.4082 44.8301C35.1394 44.9049 34.8666 44.9713 34.5898 45.0293L34.7529 47.0459L34.0918 45.123C33.8155 45.1701 33.5361 45.209 33.2539 45.2393L33.2119 47.2578L32.7568 45.2822C32.4673 45.304 32.1753 45.3144 31.8809 45.3145L31.6309 47.3125L31.3779 45.3066C31.0932 45.2972 30.81 45.2792 30.5293 45.2529L30.083 47.2061L30.0361 45.1982C29.7525 45.1611 29.4716 45.1146 29.1934 45.0596L28.5527 46.9463L28.71 44.9541C28.4301 44.8886 28.1532 44.8138 27.8809 44.7305L27.0576 46.5332L27.4131 44.5791C27.1403 44.4844 26.8717 44.382 26.6074 44.2715L25.6123 45.9697L26.1602 44.0732C25.8975 43.9513 25.6378 43.8229 25.3848 43.6846L24.2305 45.2637L24.9629 43.4443C24.7125 43.2956 24.4671 43.1401 24.2275 42.9766L22.9287 44.4209L23.834 42.6973C23.5989 42.5243 23.3697 42.3436 23.1465 42.1553L21.7178 43.4521L22.7852 41.8408C22.5669 41.643 22.3548 41.4388 22.1504 41.2285L20.6113 42.3652L21.8262 40.8828C21.6277 40.6636 21.4365 40.4371 21.2529 40.2051L19.6211 41.1729L20.9678 39.834C20.7914 39.5945 20.6217 39.3491 20.4609 39.0977L18.7559 39.8867L20.2178 38.7012C20.065 38.4433 19.9206 38.1799 19.7852 37.9121L18.0254 38.5186L19.584 37.4961C19.458 37.2229 19.3411 36.9447 19.2324 36.6621L17.4375 37.084L19.0752 36.2324C18.977 35.9458 18.888 35.6549 18.8086 35.3604L16.9971 35.5967L18.6973 34.9209C18.6288 34.6249 18.5701 34.3249 18.5205 34.0215L16.71 34.0732L18.4561 33.5771C18.4174 33.2739 18.3889 32.9683 18.3711 32.6602L16.5781 32.5254L18.3506 32.2109C18.3461 32.092 18.3467 31.9722 18.3467 31.8525C18.3467 31.6622 18.3519 31.4723 18.3594 31.2842L16.6035 30.9746L18.3838 30.8457C18.4076 30.5333 18.4412 30.2244 18.4854 29.9189L16.7861 29.4375L18.5547 29.4863C18.6097 29.1771 18.6751 28.8712 18.751 28.5693L17.123 27.9229L18.8633 28.1455C18.9501 27.8426 19.0471 27.5435 19.1543 27.249L17.6123 26.4502L19.3096 26.8467C19.4277 26.5526 19.5554 26.2636 19.6924 25.9805L18.2529 25.0322L19.8896 25.5947C20.0374 25.3143 20.1947 25.0396 20.3613 24.7705L19.0225 23.6885L20.5898 24.4111C20.7659 24.1464 20.9501 23.888 21.1436 23.6367L19.9297 22.4307L21.4092 23.3037C21.6115 23.0579 21.8218 22.8193 22.041 22.5889L20.959 21.2695L22.3379 22.2861C22.5641 22.0615 22.7989 21.845 23.041 21.6367L22.1006 20.2236L23.3652 21.3701C23.6143 21.1693 23.8704 20.9779 24.1328 20.7959L23.3418 19.2969L24.4824 20.5615C24.7503 20.387 25.0244 20.2221 25.3047 20.0674L24.6719 18.4961L25.6758 19.8691C25.9581 19.7234 26.2482 19.5869 26.5459 19.4609L26.0752 17.8359L26.9365 19.3027C27.2339 19.1868 27.5359 19.0814 27.8428 18.9873L27.5381 17.3203L28.248 18.8701C28.5547 18.7838 28.8661 18.709 29.1816 18.6465L29.0469 16.9531L29.5977 18.5713C29.91 18.5193 30.2261 18.479 30.5459 18.4492L30.583 16.7422L30.9697 18.416C31.2502 18.3982 31.5322 18.3887 31.8164 18.3887H31.9229L32.1348 16.6875L32.3506 18.3984ZM31.8906 20.4873C25.5321 20.4873 20.3779 25.6415 20.3779 32C20.3779 38.3585 25.5321 43.5127 31.8906 43.5127C38.2492 43.5127 43.4033 38.3585 43.4033 32C43.4033 25.6415 38.2492 20.4873 31.8906 20.4873Z" fill="url(#paint1_linear_24_52)" fill-opacity="0.1" style="mix-blend-mode:soft-light"/>
</g>
<g filter="url(#filter2_ddii_24_52)">
<path d="M32.6484 11.9844C33.118 12.0019 33.5826 12.0361 34.042 12.0879L34.6064 9.62012L34.668 12.167C35.1315 12.2326 35.5889 12.3142 36.04 12.4111L36.8545 10.0049L36.6572 12.5576C37.1099 12.667 37.5548 12.7947 37.9922 12.9404L39.0557 10.6113L38.5977 13.1475C39.0329 13.3042 39.4609 13.4757 39.8809 13.6631L41.1797 11.4375L40.4639 13.9316C40.8778 14.1321 41.2835 14.3459 41.6807 14.5732L43.2119 12.4736L42.2354 14.9014C42.6247 15.1405 43.0046 15.3928 43.375 15.6582L45.125 13.7061L43.8984 16.0459C44.2583 16.3215 44.6102 16.6095 44.9492 16.9092L46.9062 15.1279L45.4326 17.3594C45.7606 17.6684 46.0776 17.9882 46.3838 18.3184L48.5352 16.7344L46.833 18.8125C47.1254 19.1516 47.4072 19.5001 47.6777 19.8574L49.9932 18.4824L48.0713 20.4033C48.3272 20.7664 48.5719 21.1385 48.8037 21.5205L51.2656 20.3779L49.1436 22.1025C49.3594 22.4875 49.5626 22.88 49.7529 23.2803L52.3418 22.3848L50.0352 23.9033C50.2115 24.3049 50.3728 24.7134 50.5186 25.1289L53.208 24.4932L50.7334 25.7822C50.8653 26.1978 50.9834 26.6179 51.0869 27.043L53.8574 26.6797L51.249 27.7217C51.335 28.1437 51.408 28.5707 51.4678 29.0029L54.2822 28.9199L51.5537 29.6973C51.5967 30.1195 51.627 30.5498 51.6445 30.9873L54.4775 31.1914L51.6611 31.6875V31.7617C51.6611 32.1674 51.6471 32.5714 51.623 32.9717L54.4424 33.4648L51.5684 33.6836C51.5268 34.1101 51.4721 34.5325 51.4043 34.9502L54.1777 35.7314L51.2773 35.6562C51.1942 36.073 51.0977 36.4867 50.9883 36.8936L53.6846 37.9629L50.7852 37.5879C50.6616 37.9914 50.5237 38.3906 50.375 38.7832L52.9648 40.1221L50.1055 39.458C49.9407 39.8452 49.7658 40.2265 49.5791 40.6006L52.0332 42.2051L49.2412 41.248C49.04 41.6155 48.8276 41.975 48.6045 42.3271L50.9014 44.1865L48.2051 42.9463C47.9696 43.2896 47.7236 43.6251 47.4678 43.9531L49.5713 46.0381L47 44.5195C46.7324 44.8374 46.4545 45.1457 46.168 45.4453L48.0566 47.7422L45.6504 45.9717C45.3529 46.2633 45.0469 46.5432 44.7334 46.8115L46.3838 49.292L44.1611 47.2832C43.8386 47.5402 43.506 47.7863 43.167 48.0225L44.5596 50.6602L42.5518 48.4355C42.205 48.6587 41.8492 48.871 41.4883 49.0723L42.6074 51.8369L40.834 49.4209C40.4665 49.6079 40.0914 49.7842 39.7119 49.9482L40.541 52.8105L39.0234 50.2295C38.6392 50.3782 38.2485 50.5155 37.8525 50.6416L38.3994 53.5713L37.1426 50.8516C36.7474 50.9617 36.3463 51.0592 35.9395 51.1445L36.1797 54.1104L35.208 51.2832C34.8019 51.3525 34.3914 51.4086 33.9766 51.4531L33.915 54.4219L33.2471 51.5166C32.8212 51.5487 32.3911 51.5654 31.958 51.5654L31.5908 54.5029L31.2188 51.5527C30.8005 51.5389 30.3851 51.5132 29.9727 51.4746L29.3164 54.3467L29.248 51.3936C28.831 51.3389 28.4178 51.2704 28.0088 51.1895L27.0684 53.9639L27.2979 51.0342C26.8868 50.938 26.4812 50.8285 26.0811 50.7061L24.8711 53.3564L25.3926 50.4834C24.9915 50.3441 24.5966 50.1929 24.208 50.0303L22.7461 52.5283L23.5508 49.7393C23.1648 49.5599 22.7839 49.3714 22.4121 49.168L20.7158 51.4902L21.792 48.8154C21.4238 48.5967 21.0631 48.3666 20.7109 48.126L18.8018 50.251L20.1328 47.7158C19.7872 47.4614 19.4501 47.196 19.1221 46.9189L17.0225 48.8262L18.5908 46.4561C18.27 46.1651 17.9596 45.8648 17.6592 45.5557L15.3965 47.2275L17.1816 45.0469C16.8901 44.7247 16.6095 44.3929 16.3398 44.0518L13.9414 45.4736L15.9199 43.5049C15.6608 43.1528 15.411 42.7934 15.1748 42.4238L12.6689 43.583L14.8174 41.8398C14.5928 41.4607 14.3807 41.0734 14.1816 40.6797L11.5957 41.5713L13.8867 40.0674C13.7016 39.6657 13.5288 39.2573 13.3691 38.8418L10.7324 39.4619L13.1387 38.209C12.9944 37.7877 12.8637 37.3607 12.7471 36.9277L10.085 37.2744L12.584 36.2812C12.4834 35.8461 12.3961 35.4051 12.3232 34.959L9.66211 35.0342L12.2285 34.3057C12.1716 33.8595 12.1298 33.4096 12.1035 32.9561L9.46875 32.7578L12.0742 32.2969C12.0677 32.122 12.0674 31.9455 12.0674 31.7695C12.0674 31.4895 12.075 31.2103 12.0859 30.9336L9.50586 30.4785L12.1221 30.2881C12.1571 29.8289 12.2076 29.3748 12.2725 28.9258L9.77344 28.2178L12.374 28.2891C12.4549 27.8341 12.5506 27.3844 12.6621 26.9404L10.2695 25.9902L12.8281 26.3184C12.9557 25.8729 13.0974 25.4331 13.2549 25L10.9883 23.8242L13.4824 24.4072C13.656 23.9748 13.8437 23.5501 14.0449 23.1338L11.9297 21.7393L14.3359 22.5674C14.5532 22.1547 14.7843 21.7504 15.0293 21.3545L13.0605 19.7646L15.3643 20.8262C15.6231 20.4368 15.8944 20.0571 16.1787 19.6875L14.3936 17.9141L16.5684 19.1973C16.8658 18.8357 17.1758 18.4855 17.498 18.1465L15.9062 16.207L17.9346 17.7012C18.267 17.3709 18.611 17.0523 18.9668 16.7461L17.584 14.668L19.4434 16.3535C19.8093 16.0583 20.1856 15.7773 20.5713 15.5098L19.4092 13.3057L21.0859 15.165C21.4796 14.9084 21.8821 14.6659 22.2939 14.4385L21.3633 12.1289L22.8398 14.1465C23.2547 13.9321 23.6807 13.7321 24.1182 13.5469L23.4258 11.1572L24.6914 13.3145C25.1288 13.1439 25.5732 12.9891 26.0244 12.8506L25.5762 10.3994L26.6201 12.6777C27.0706 12.5509 27.5276 12.4415 27.9912 12.3496L27.793 9.85938L28.6025 12.2393C29.0618 12.1627 29.5268 12.1023 29.9971 12.0586L30.0518 9.5498L30.6201 12.0107C31.0323 11.9845 31.4466 11.9697 31.8643 11.9697H32.0205L32.3311 9.46875L32.6484 11.9844ZM34.2939 32.7021C33.1277 32.708 32.052 33.3327 31.4688 34.3428L25.8955 43.9951C24.911 45.7004 25.645 47.9136 27.5459 48.4268C39.7357 51.7144 46.8276 43.1322 49.043 36.123C49.6229 34.2877 48.1065 32.6341 46.1816 32.6436L34.2939 32.7021ZM24.2988 20.1387C23.3141 18.4336 21.0305 17.9627 19.6357 19.3525C10.6937 28.2654 14.5796 38.6989 19.542 44.1221C20.8415 45.5422 23.0321 45.0546 23.9863 43.3828L29.8799 33.0586C30.4579 32.0456 30.4542 30.802 29.8711 29.792L24.2988 20.1387ZM31.918 30.6025C31.3747 30.6028 30.9338 31.0436 30.9336 31.5869C30.9337 32.1303 31.3746 32.571 31.918 32.5713C32.4616 32.5713 32.9022 32.1305 32.9023 31.5869C32.9022 31.0434 32.4615 30.6025 31.918 30.6025ZM48.835 27.0117C45.5871 14.8117 34.6093 12.9609 27.4316 14.5469C25.5523 14.9623 24.8783 17.1025 25.8486 18.7646L31.8438 29.0303C32.4319 30.0375 33.5104 30.6571 34.6768 30.6572H45.8232C47.7925 30.6571 49.3415 28.9147 48.835 27.0117Z" fill="url(#paint2_linear_24_52)"/>
<path d="M32.6484 11.9844C33.118 12.0019 33.5826 12.0361 34.042 12.0879L34.6064 9.62012L34.668 12.167C35.1315 12.2326 35.5889 12.3142 36.04 12.4111L36.8545 10.0049L36.6572 12.5576C37.1099 12.667 37.5548 12.7947 37.9922 12.9404L39.0557 10.6113L38.5977 13.1475C39.0329 13.3042 39.4609 13.4757 39.8809 13.6631L41.1797 11.4375L40.4639 13.9316C40.8778 14.1321 41.2835 14.3459 41.6807 14.5732L43.2119 12.4736L42.2354 14.9014C42.6247 15.1405 43.0046 15.3928 43.375 15.6582L45.125 13.7061L43.8984 16.0459C44.2583 16.3215 44.6102 16.6095 44.9492 16.9092L46.9062 15.1279L45.4326 17.3594C45.7606 17.6684 46.0776 17.9882 46.3838 18.3184L48.5352 16.7344L46.833 18.8125C47.1254 19.1516 47.4072 19.5001 47.6777 19.8574L49.9932 18.4824L48.0713 20.4033C48.3272 20.7664 48.5719 21.1385 48.8037 21.5205L51.2656 20.3779L49.1436 22.1025C49.3594 22.4875 49.5626 22.88 49.7529 23.2803L52.3418 22.3848L50.0352 23.9033C50.2115 24.3049 50.3728 24.7134 50.5186 25.1289L53.208 24.4932L50.7334 25.7822C50.8653 26.1978 50.9834 26.6179 51.0869 27.043L53.8574 26.6797L51.249 27.7217C51.335 28.1437 51.408 28.5707 51.4678 29.0029L54.2822 28.9199L51.5537 29.6973C51.5967 30.1195 51.627 30.5498 51.6445 30.9873L54.4775 31.1914L51.6611 31.6875V31.7617C51.6611 32.1674 51.6471 32.5714 51.623 32.9717L54.4424 33.4648L51.5684 33.6836C51.5268 34.1101 51.4721 34.5325 51.4043 34.9502L54.1777 35.7314L51.2773 35.6562C51.1942 36.073 51.0977 36.4867 50.9883 36.8936L53.6846 37.9629L50.7852 37.5879C50.6616 37.9914 50.5237 38.3906 50.375 38.7832L52.9648 40.1221L50.1055 39.458C49.9407 39.8452 49.7658 40.2265 49.5791 40.6006L52.0332 42.2051L49.2412 41.248C49.04 41.6155 48.8276 41.975 48.6045 42.3271L50.9014 44.1865L48.2051 42.9463C47.9696 43.2896 47.7236 43.6251 47.4678 43.9531L49.5713 46.0381L47 44.5195C46.7324 44.8374 46.4545 45.1457 46.168 45.4453L48.0566 47.7422L45.6504 45.9717C45.3529 46.2633 45.0469 46.5432 44.7334 46.8115L46.3838 49.292L44.1611 47.2832C43.8386 47.5402 43.506 47.7863 43.167 48.0225L44.5596 50.6602L42.5518 48.4355C42.205 48.6587 41.8492 48.871 41.4883 49.0723L42.6074 51.8369L40.834 49.4209C40.4665 49.6079 40.0914 49.7842 39.7119 49.9482L40.541 52.8105L39.0234 50.2295C38.6392 50.3782 38.2485 50.5155 37.8525 50.6416L38.3994 53.5713L37.1426 50.8516C36.7474 50.9617 36.3463 51.0592 35.9395 51.1445L36.1797 54.1104L35.208 51.2832C34.8019 51.3525 34.3914 51.4086 33.9766 51.4531L33.915 54.4219L33.2471 51.5166C32.8212 51.5487 32.3911 51.5654 31.958 51.5654L31.5908 54.5029L31.2188 51.5527C30.8005 51.5389 30.3851 51.5132 29.9727 51.4746L29.3164 54.3467L29.248 51.3936C28.831 51.3389 28.4178 51.2704 28.0088 51.1895L27.0684 53.9639L27.2979 51.0342C26.8868 50.938 26.4812 50.8285 26.0811 50.7061L24.8711 53.3564L25.3926 50.4834C24.9915 50.3441 24.5966 50.1929 24.208 50.0303L22.7461 52.5283L23.5508 49.7393C23.1648 49.5599 22.7839 49.3714 22.4121 49.168L20.7158 51.4902L21.792 48.8154C21.4238 48.5967 21.0631 48.3666 20.7109 48.126L18.8018 50.251L20.1328 47.7158C19.7872 47.4614 19.4501 47.196 19.1221 46.9189L17.0225 48.8262L18.5908 46.4561C18.27 46.1651 17.9596 45.8648 17.6592 45.5557L15.3965 47.2275L17.1816 45.0469C16.8901 44.7247 16.6095 44.3929 16.3398 44.0518L13.9414 45.4736L15.9199 43.5049C15.6608 43.1528 15.411 42.7934 15.1748 42.4238L12.6689 43.583L14.8174 41.8398C14.5928 41.4607 14.3807 41.0734 14.1816 40.6797L11.5957 41.5713L13.8867 40.0674C13.7016 39.6657 13.5288 39.2573 13.3691 38.8418L10.7324 39.4619L13.1387 38.209C12.9944 37.7877 12.8637 37.3607 12.7471 36.9277L10.085 37.2744L12.584 36.2812C12.4834 35.8461 12.3961 35.4051 12.3232 34.959L9.66211 35.0342L12.2285 34.3057C12.1716 33.8595 12.1298 33.4096 12.1035 32.9561L9.46875 32.7578L12.0742 32.2969C12.0677 32.122 12.0674 31.9455 12.0674 31.7695C12.0674 31.4895 12.075 31.2103 12.0859 30.9336L9.50586 30.4785L12.1221 30.2881C12.1571 29.8289 12.2076 29.3748 12.2725 28.9258L9.77344 28.2178L12.374 28.2891C12.4549 27.8341 12.5506 27.3844 12.6621 26.9404L10.2695 25.9902L12.8281 26.3184C12.9557 25.8729 13.0974 25.4331 13.2549 25L10.9883 23.8242L13.4824 24.4072C13.656 23.9748 13.8437 23.5501 14.0449 23.1338L11.9297 21.7393L14.3359 22.5674C14.5532 22.1547 14.7843 21.7504 15.0293 21.3545L13.0605 19.7646L15.3643 20.8262C15.6231 20.4368 15.8944 20.0571 16.1787 19.6875L14.3936 17.9141L16.5684 19.1973C16.8658 18.8357 17.1758 18.4855 17.498 18.1465L15.9062 16.207L17.9346 17.7012C18.267 17.3709 18.611 17.0523 18.9668 16.7461L17.584 14.668L19.4434 16.3535C19.8093 16.0583 20.1856 15.7773 20.5713 15.5098L19.4092 13.3057L21.0859 15.165C21.4796 14.9084 21.8821 14.6659 22.2939 14.4385L21.3633 12.1289L22.8398 14.1465C23.2547 13.9321 23.6807 13.7321 24.1182 13.5469L23.4258 11.1572L24.6914 13.3145C25.1288 13.1439 25.5732 12.9891 26.0244 12.8506L25.5762 10.3994L26.6201 12.6777C27.0706 12.5509 27.5276 12.4415 27.9912 12.3496L27.793 9.85938L28.6025 12.2393C29.0618 12.1627 29.5268 12.1023 29.9971 12.0586L30.0518 9.5498L30.6201 12.0107C31.0323 11.9845 31.4466 11.9697 31.8643 11.9697H32.0205L32.3311 9.46875L32.6484 11.9844ZM34.2939 32.7021C33.1277 32.708 32.052 33.3327 31.4688 34.3428L25.8955 43.9951C24.911 45.7004 25.645 47.9136 27.5459 48.4268C39.7357 51.7144 46.8276 43.1322 49.043 36.123C49.6229 34.2877 48.1065 32.6341 46.1816 32.6436L34.2939 32.7021ZM24.2988 20.1387C23.3141 18.4336 21.0305 17.9627 19.6357 19.3525C10.6937 28.2654 14.5796 38.6989 19.542 44.1221C20.8415 45.5422 23.0321 45.0546 23.9863 43.3828L29.8799 33.0586C30.4579 32.0456 30.4542 30.802 29.8711 29.792L24.2988 20.1387ZM31.918 30.6025C31.3747 30.6028 30.9338 31.0436 30.9336 31.5869C30.9337 32.1303 31.3746 32.571 31.918 32.5713C32.4616 32.5713 32.9022 32.1305 32.9023 31.5869C32.9022 31.0434 32.4615 30.6025 31.918 30.6025ZM48.835 27.0117C45.5871 14.8117 34.6093 12.9609 27.4316 14.5469C25.5523 14.9623 24.8783 17.1025 25.8486 18.7646L31.8438 29.0303C32.4319 30.0375 33.5104 30.6571 34.6768 30.6572H45.8232C47.7925 30.6571 49.3415 28.9147 48.835 27.0117Z" fill="url(#paint3_linear_24_52)" fill-opacity="0.1" style="mix-blend-mode:soft-light"/>
</g>
<g filter="url(#filter3_i_24_52)">
<circle cx="32" cy="32" r="23.625" fill="#737472" fill-opacity="0.01"/>
</g>
<g filter="url(#filter4_ii_24_52)">
<path d="M40.75 4C47.4881 4 50.857 4.00022 53.4307 5.31152C55.6945 6.465 57.535 8.30551 58.6885 10.5693C59.9998 13.143 60 16.5119 60 23.25V40.75C60 47.4881 59.9998 50.857 58.6885 53.4307C57.535 55.6945 55.6945 57.535 53.4307 58.6885C50.857 59.9998 47.4881 60 40.75 60H23.25C16.5119 60 13.143 59.9998 10.5693 58.6885C8.30551 57.535 6.465 55.6945 5.31152 53.4307C4.00022 50.857 4 47.4881 4 40.75V23.25C4 16.5119 4.00022 13.143 5.31152 10.5693C6.465 8.30551 8.30551 6.465 10.5693 5.31152C13.143 4.00022 16.5119 4 23.25 4H40.75ZM32 8.375C18.9523 8.375 8.375 18.9523 8.375 32C8.375 45.0477 18.9523 55.625 32 55.625C45.0477 55.625 55.625 45.0477 55.625 32C55.625 18.9523 45.0477 8.375 32 8.375Z" fill="url(#paint4_linear_24_52)"/>
<path d="M40.75 4C47.4881 4 50.857 4.00022 53.4307 5.31152C55.6945 6.465 57.535 8.30551 58.6885 10.5693C59.9998 13.143 60 16.5119 60 23.25V40.75C60 47.4881 59.9998 50.857 58.6885 53.4307C57.535 55.6945 55.6945 57.535 53.4307 58.6885C50.857 59.9998 47.4881 60 40.75 60H23.25C16.5119 60 13.143 59.9998 10.5693 58.6885C8.30551 57.535 6.465 55.6945 5.31152 53.4307C4.00022 50.857 4 47.4881 4 40.75V23.25C4 16.5119 4.00022 13.143 5.31152 10.5693C6.465 8.30551 8.30551 6.465 10.5693 5.31152C13.143 4.00022 16.5119 4 23.25 4H40.75ZM32 8.375C18.9523 8.375 8.375 18.9523 8.375 32C8.375 45.0477 18.9523 55.625 32 55.625C45.0477 55.625 55.625 45.0477 55.625 32C55.625 18.9523 45.0477 8.375 32 8.375Z" fill="url(#paint5_linear_24_52)" fill-opacity="0.1" style="mix-blend-mode:soft-light"/>
</g>
<defs>
<filter id="filter0_ii_24_52" x="8.375" y="8.26562" width="47.25" height="51.7344" filterUnits="userSpaceOnUse" color-interpolation-filters="sRGB">
<feFlood flood-opacity="0" result="BackgroundImageFix"/>
<feBlend mode="normal" in="SourceGraphic" in2="BackgroundImageFix" result="shape"/>
<feColorMatrix in="SourceAlpha" type="matrix" values="0 0 0 0 0 0 0 0 0 0 0 0 0 0 0 0 0 0 127 0" result="hardAlpha"/>
<feOffset dy="-0.4375"/>
<feGaussianBlur stdDeviation="0.0546875"/>
<feComposite in2="hardAlpha" operator="arithmetic" k2="-1" k3="1"/>
<feColorMatrix type="matrix" values="0 0 0 0 1 0 0 0 0 1 0 0 0 0 1 0 0 0 0.8 0"/>
<feBlend mode="overlay" in2="shape" result="effect1_innerShadow_24_52"/>
<feColorMatrix in="SourceAlpha" type="matrix" values="0 0 0 0 0 0 0 0 0 0 0 0 0 0 0 0 0 0 127 0" result="hardAlpha"/>
<feOffset dy="4.375"/>
<feGaussianBlur stdDeviation="3.28125"/>
<feComposite in2="hardAlpha" operator="arithmetic" k2="-1" k3="1"/>
<feColorMatrix type="matrix" values="0 0 0 0 0 0 0 0 0 0 0 0 0 0 0 0 0 0 0.6 0"/>
<feBlend mode="normal" in2="effect1_innerShadow_24_52" result="effect2_innerShadow_24_52"/>
</filter>
<filter id="filter1_ddii_24_52" x="12.2031" y="16.0312" width="39.375" height="40.4688" filterUnits="userSpaceOnUse" color-interpolation-filters="sRGB">
<feFlood flood-opacity="0" result="BackgroundImageFix"/>
<feColorMatrix in="SourceAlpha" type="matrix" values="0 0 0 0 0 0 0 0 0 0 0 0 0 0 0 0 0 0 127 0" result="hardAlpha"/>
<feOffset dy="2.1875"/>
<feGaussianBlur stdDeviation="1.42188"/>
<feColorMatrix type="matrix" values="0 0 0 0 0 0 0 0 0 0 0 0 0 0 0 0 0 0 1 0"/>
<feBlend mode="normal" in2="BackgroundImageFix" result="effect1_dropShadow_24_52"/>
<feColorMatrix in="SourceAlpha" type="matrix" values="0 0 0 0 0 0 0 0 0 0 0 0 0 0 0 0 0 0 127 0" result="hardAlpha"/>
<feOffset dy="4.8125"/>
<feGaussianBlur stdDeviation="2.1875"/>
<feColorMatrix type="matrix" values="0 0 0 0 0 0 0 0 0 0 0 0 0 0 0 0 0 0 0.5 0"/>
<feBlend mode="normal" in2="effect1_dropShadow_24_52" result="effect2_dropShadow_24_52"/>
<feBlend mode="normal" in="SourceGraphic" in2="effect2_dropShadow_24_52" result="shape"/>
<feColorMatrix in="SourceAlpha" type="matrix" values="0 0 0 0 0 0 0 0 0 0 0 0 0 0 0 0 0 0 127 0" result="hardAlpha"/>
<feOffset dy="0.875"/>
<feGaussianBlur stdDeviation="1.09375"/>
<feComposite in2="hardAlpha" operator="arithmetic" k2="-1" k3="1"/>
<feColorMatrix type="matrix" values="0 0 0 0 0 0 0 0 0 0 0 0 0 0 0 0 0 0 0.16 0"/>
<feBlend mode="normal" in2="shape" result="effect3_innerShadow_24_52"/>
<feColorMatrix in="SourceAlpha" type="matrix" values="0 0 0 0 0 0 0 0 0 0 0 0 0 0 0 0 0 0 127 0" result="hardAlpha"/>
<feOffset dy="0.328125"/>
<feGaussianBlur stdDeviation="0.109375"/>
<feComposite in2="hardAlpha" operator="arithmetic" k2="-1" k3="1"/>
<feColorMatrix type="matrix" values="0 0 0 0 1 0 0 0 0 1 0 0 0 0 1 0 0 0 0.6 0"/>
<feBlend mode="normal" in2="effect3_innerShadow_24_52" result="effect4_innerShadow_24_52"/>
</filter>
<filter id="filter2_ddii_24_52" x="5.09375" y="8.375" width="53.7588" height="53.7842" filterUnits="userSpaceOnUse" color-interpolation-filters="sRGB">
<feFlood flood-opacity="0" result="BackgroundImageFix"/>
<feColorMatrix in="SourceAlpha" type="matrix" values="0 0 0 0 0 0 0 0 0 0 0 0 0 0 0 0 0 0 127 0" result="hardAlpha"/>
<feOffset dy="2.73438"/>
<feGaussianBlur stdDeviation="1.42188"/>
<feColorMatrix type="matrix" values="0 0 0 0 0 0 0 0 0 0 0 0 0 0 0 0 0 0 1 0"/>
<feBlend mode="normal" in2="BackgroundImageFix" result="effect1_dropShadow_24_52"/>
<feColorMatrix in="SourceAlpha" type="matrix" values="0 0 0 0 0 0 0 0 0 0 0 0 0 0 0 0 0 0 127 0" result="hardAlpha"/>
<feOffset dy="3.28125"/>
<feGaussianBlur stdDeviation="2.1875"/>
<feColorMatrix type="matrix" values="0 0 0 0 0 0 0 0 0 0 0 0 0 0 0 0 0 0 0.6 0"/>
<feBlend mode="normal" in2="effect1_dropShadow_24_52" result="effect2_dropShadow_24_52"/>
<feBlend mode="normal" in="SourceGraphic" in2="effect2_dropShadow_24_52" result="shape"/>
<feColorMatrix in="SourceAlpha" type="matrix" values="0 0 0 0 0 0 0 0 0 0 0 0 0 0 0 0 0 0 127 0" result="hardAlpha"/>
<feOffset dy="0.875"/>
<feGaussianBlur stdDeviation="1.09375"/>
<feComposite in2="hardAlpha" operator="arithmetic" k2="-1" k3="1"/>
<feColorMatrix type="matrix" values="0 0 0 0 0 0 0 0 0 0 0 0 0 0 0 0 0 0 0.16 0"/>
<feBlend mode="normal" in2="shape" result="effect3_innerShadow_24_52"/>
<feColorMatrix in="SourceAlpha" type="matrix" values="0 0 0 0 0 0 0 0 0 0 0 0 0 0 0 0 0 0 127 0" result="hardAlpha"/>
<feOffset dy="0.328125"/>
<feGaussianBlur stdDeviation="0.109375"/>
<feComposite in2="hardAlpha" operator="arithmetic" k2="-1" k3="1"/>
<feColorMatrix type="matrix" values="0 0 0 0 1 0 0 0 0 1 0 0 0 0 1 0 0 0 0.6 0"/>
<feBlend mode="normal" in2="effect3_innerShadow_24_52" result="effect4_innerShadow_24_52"/>
</filter>
<filter id="filter3_i_24_52" x="8.375" y="8.375" width="47.25" height="50.5312" filterUnits="userSpaceOnUse" color-interpolation-filters="sRGB">
<feFlood flood-opacity="0" result="BackgroundImageFix"/>
<feBlend mode="normal" in="SourceGraphic" in2="BackgroundImageFix" result="shape"/>
<feColorMatrix in="SourceAlpha" type="matrix" values="0 0 0 0 0 0 0 0 0 0 0 0 0 0 0 0 0 0 127 0" result="hardAlpha"/>
<feOffset dy="3.28125"/>
<feGaussianBlur stdDeviation="3.28125"/>
<feComposite in2="hardAlpha" operator="arithmetic" k2="-1" k3="1"/>
<feColorMatrix type="matrix" values="0 0 0 0 0 0 0 0 0 0 0 0 0 0 0 0 0 0 0.7 0"/>
<feBlend mode="normal" in2="shape" result="effect1_innerShadow_24_52"/>
</filter>
<filter id="filter4_ii_24_52" x="3.125" y="3.125" width="56.875" height="57.0938" filterUnits="userSpaceOnUse" color-interpolation-filters="sRGB">
<feFlood flood-opacity="0" result="BackgroundImageFix"/>
<feBlend mode="normal" in="SourceGraphic" in2="BackgroundImageFix" result="shape"/>
<feColorMatrix in="SourceAlpha" type="matrix" values="0 0 0 0 0 0 0 0 0 0 0 0 0 0 0 0 0 0 127 0" result="hardAlpha"/>
<feOffset dx="-0.875" dy="-0.875"/>
<feGaussianBlur stdDeviation="0.4375"/>
<feComposite in2="hardAlpha" operator="arithmetic" k2="-1" k3="1"/>
<feColorMatrix type="matrix" values="0 0 0 0 0 0 0 0 0 0 0 0 0 0 0 0 0 0 0.05 0"/>
<feBlend mode="normal" in2="shape" result="effect1_innerShadow_24_52"/>
<feColorMatrix in="SourceAlpha" type="matrix" values="0 0 0 0 0 0 0 0 0 0 0 0 0 0 0 0 0 0 127 0" result="hardAlpha"/>
<feOffset dy="0.21875"/>
<feGaussianBlur stdDeviation="0.109375"/>
<feComposite in2="hardAlpha" operator="arithmetic" k2="-1" k3="1"/>
<feColorMatrix type="matrix" values="0 0 0 0 1 0 0 0 0 1 0 0 0 0 1 0 0 0 0.8 0"/>
<feBlend mode="normal" in2="effect1_innerShadow_24_52" result="effect2_innerShadow_24_52"/>
</filter>
<linearGradient id="paint0_linear_24_52" x1="31.8906" y1="16.6875" x2="31.8906" y2="47.3125" gradientUnits="userSpaceOnUse">
<stop stop-color="#D2E2E8"/>
<stop offset="1" stop-color="#949491"/>
</linearGradient>
<linearGradient id="paint1_linear_24_52" x1="31.8906" y1="16.6875" x2="31.8906" y2="47.3125" gradientUnits="userSpaceOnUse">
<stop offset="0.151042" stop-color="white"/>
<stop offset="1" stop-opacity="0.1"/>
</linearGradient>
<linearGradient id="paint2_linear_24_52" x1="31.9731" y1="9.46875" x2="31.9731" y2="54.5029" gradientUnits="userSpaceOnUse">
<stop stop-color="#D2E2E8"/>
<stop offset="1" stop-color="#949491"/>
</linearGradient>
<linearGradient id="paint3_linear_24_52" x1="31.9731" y1="9.46875" x2="31.9731" y2="54.5029" gradientUnits="userSpaceOnUse">
<stop offset="0.151042" stop-color="white"/>
<stop offset="1" stop-opacity="0.1"/>
</linearGradient>
<linearGradient id="paint4_linear_24_52" x1="32" y1="4" x2="32" y2="60" gradientUnits="userSpaceOnUse">
<stop stop-color="#D2E2E8"/>
<stop offset="1" stop-color="#949491"/>
</linearGradient>
<linearGradient id="paint5_linear_24_52" x1="32" y1="4" x2="32" y2="60" gradientUnits="userSpaceOnUse">
<stop offset="0.151042" stop-color="white"/>
<stop offset="1" stop-opacity="0.1"/>
</linearGradient>
</defs>
</svg>
